<svg width="1005" height="206" viewBox="0 0 1005 206" fill="none" xmlns="http://www.w3.org/2000/svg">
<g clip-path="url(#clip0_86_72)">
<path d="M155.049 205.966V180.412C158.698 180.412 162.24 180.453 165.752 180.412C167.955 180.436 170.158 180.302 172.342 180.009C176.531 179.336 179.314 176.467 179.987 172.262C180.256 170.502 180.386 168.722 180.374 166.941C180.395 124.388 180.395 81.8362 180.374 39.2865C180.374 28.6855 177.26 25.5765 166.741 25.5612H155.136V0.113859C155.885 0.0781822 156.7 0.00173307 157.516 0.00173307C169.32 0.00173307 181.125 0.00173307 192.932 0.00173307C194.545 -0.0161861 196.156 0.104881 197.749 0.363592C202.076 1.11279 204.884 3.88024 205.618 8.22767C205.901 10.2534 206.016 12.2989 205.964 14.3436C205.964 73.5392 205.964 132.738 205.964 191.94C205.964 202.995 202.973 205.987 191.893 205.992H155.044L155.049 205.966Z" fill="white"/>
<path d="M50.9253 180.42V205.852C50.0897 205.893 49.274 205.969 48.4637 205.969H13.0422C11.9414 205.969 10.8303 205.969 9.73453 205.873C3.9244 205.337 0.473983 201.826 0.0815457 195.99C0 194.548 0 193.1 0 191.658C0 132.456 0 73.2553 0 14.0565C0 3.0019 2.99171 0 14.0667 0H50.8743V25.5544C47.2763 25.5544 43.739 25.5085 40.202 25.5544C37.9963 25.5469 35.7927 25.6933 33.607 25.9927C29.4227 26.6604 26.6298 29.5349 25.9621 33.7343C25.6954 35.4953 25.5659 37.2743 25.5748 39.0553C25.5544 81.6087 25.5544 124.162 25.5748 166.715C25.5748 177.316 28.6888 180.43 39.203 180.44L50.9253 180.42Z" fill="white"/>
<path d="M54.5338 102.579C54.5338 83.6403 54.5338 64.703 54.5338 45.7673C54.5338 38.1223 58.5348 34.458 66.0878 34.045C76.0672 33.4793 80.2872 38.255 80.2055 48.183C79.8998 85.205 80.0832 122.232 80.0832 159.254C80.0832 167.408 76.2405 171.287 68.1468 171.292C67.1275 171.292 66.1082 171.292 65.0888 171.292C58.8252 171.195 54.5595 166.96 54.5442 160.675C54.5085 146.497 54.5442 132.313 54.5442 118.134L54.5338 102.579Z" fill="white"/>
<path d="M125.887 102.439C125.887 83.507 125.887 64.5714 125.887 45.6324C125.887 38.1864 129.964 34.476 137.334 34.0477C147.715 33.4464 151.63 38.5534 151.558 48.084C151.268 85.1924 151.441 122.301 151.436 159.409C151.436 167.38 147.542 171.289 139.602 171.295C138.582 171.295 137.563 171.295 136.544 171.295C130.132 171.244 125.887 166.998 125.887 160.541C125.87 141.174 125.87 121.806 125.887 102.439Z" fill="white"/>
<path d="M115.759 103.12C115.759 112.115 115.759 121.111 115.759 130.106C115.759 136.941 112.049 140.88 105.219 141.202C101.081 141.395 96.8508 141.793 93.4971 138.49C91.4584 136.492 90.2608 134.138 90.2558 131.273C90.2558 112.518 90.1944 93.7672 90.2558 75.0115C90.2811 69.3749 94.6948 65.1702 100.372 65.0325C102.069 64.9865 103.772 64.9919 105.469 65.0325C111.422 65.1599 115.718 69.4155 115.759 75.3735C115.8 84.6189 115.759 93.8692 115.759 103.12Z" fill="white"/>
</g>
<path d="M962.026 152.03C953.576 152.03 946.115 150.682 939.642 147.985C933.26 145.288 928.271 141.378 924.675 136.254C921.079 131.04 919.281 124.657 919.281 117.106C919.281 109.555 921.079 103.172 924.675 97.9585C928.271 92.6547 933.26 88.6544 939.642 85.9576C946.115 83.2608 953.576 81.9124 962.026 81.9124C970.476 81.9124 977.848 83.2608 984.14 85.9576C990.523 88.6544 995.512 92.6547 999.108 97.9585C1002.7 103.172 1004.5 109.555 1004.5 117.106C1004.5 124.657 1002.7 131.04 999.108 136.254C995.512 141.378 990.523 145.288 984.14 147.985C977.848 150.682 970.476 152.03 962.026 152.03ZM962.026 138.546C966.701 138.546 970.881 137.737 974.566 136.119C978.342 134.411 981.308 131.984 983.466 128.837C985.623 125.601 986.702 121.691 986.702 117.106C986.702 112.521 985.623 108.611 983.466 105.375C981.308 102.049 978.387 99.5317 974.701 97.8237C971.016 96.1157 966.791 95.2617 962.026 95.2617C957.352 95.2617 953.127 96.1157 949.351 97.8237C945.575 99.5317 942.564 102.004 940.317 105.24C938.159 108.476 937.08 112.432 937.08 117.106C937.08 121.691 938.159 125.601 940.317 128.837C942.474 131.984 945.441 134.411 949.216 136.119C952.992 137.737 957.262 138.546 962.026 138.546Z" fill="white"/>
<path d="M906.527 54V69.372H886.166V54H906.527ZM887.514 83.3955H905.044V150.412H887.514V83.3955Z" fill="white"/>
<path d="M851.177 56.427H868.706V150.412H851.177V56.427Z" fill="white"/>
<path d="M794.395 152.03C785.945 152.03 778.484 150.682 772.011 147.985C765.629 145.288 760.64 141.378 757.044 136.254C753.448 131.04 751.65 124.657 751.65 117.106C751.65 109.555 753.448 103.172 757.044 97.9585C760.64 92.6547 765.629 88.6544 772.011 85.9576C778.484 83.2608 785.945 81.9124 794.395 81.9124C802.845 81.9124 810.217 83.2608 816.509 85.9576C822.892 88.6544 827.881 92.6547 831.477 97.9585C835.072 103.172 836.87 109.555 836.87 117.106C836.87 124.657 835.072 131.04 831.477 136.254C827.881 141.378 822.892 145.288 816.509 147.985C810.217 150.682 802.845 152.03 794.395 152.03ZM794.395 138.546C799.07 138.546 803.25 137.737 806.935 136.119C810.711 134.411 813.678 131.984 815.835 128.837C817.993 125.601 819.071 121.691 819.071 117.106C819.071 112.521 817.993 108.611 815.835 105.375C813.678 102.049 810.756 99.5317 807.07 97.8237C803.385 96.1157 799.16 95.2617 794.395 95.2617C789.721 95.2617 785.496 96.1157 781.72 97.8237C777.945 99.5317 774.933 102.004 772.686 105.24C770.528 108.476 769.449 112.432 769.449 117.106C769.449 121.691 770.528 125.601 772.686 128.837C774.843 131.984 777.81 134.411 781.585 136.119C785.361 137.737 789.631 138.546 794.395 138.546Z" fill="white"/>
<path d="M690.91 84.6089H744.847V97.9582H690.91V84.6089ZM731.902 56.427H745.791V70.5854H736.082C733.475 70.4955 731.228 70.7652 729.34 71.3944C727.452 72.0237 726.014 73.1923 725.025 74.9003C724.036 76.5184 723.542 78.8557 723.542 81.9121V150.412H706.012V79.7546C706.012 74.3609 707.001 69.9561 708.979 66.5401C710.957 63.0342 713.878 60.4723 717.744 58.8542C721.609 57.2361 726.329 56.427 731.902 56.427Z" fill="white"/>
<path d="M641.113 83.3956H658.643V150.412H641.113V83.3956ZM684.397 97.8237C679.363 97.8237 675.003 98.8125 671.318 100.79C667.632 102.678 664.666 105.015 662.418 107.802C660.171 110.589 658.598 113.286 657.699 115.892L657.564 108.476C657.654 107.397 658.013 105.824 658.643 103.757C659.272 101.599 660.216 99.3069 661.474 96.8798C662.733 94.3627 664.396 91.9805 666.464 89.7332C668.531 87.3959 671.048 85.5081 674.015 84.0698C676.981 82.6315 680.442 81.9124 684.397 81.9124V97.8237Z" fill="white"/>
<path d="M585.68 152.03C577.23 152.03 569.769 150.682 563.297 147.985C556.914 145.288 551.925 141.378 548.329 136.254C544.733 131.04 542.936 124.657 542.936 117.106C542.936 109.555 544.733 103.172 548.329 97.9585C551.925 92.6547 556.914 88.6544 563.297 85.9576C569.769 83.2608 577.23 81.9124 585.68 81.9124C594.13 81.9124 601.502 83.2608 607.794 85.9576C614.177 88.6544 619.166 92.6547 622.762 97.9585C626.358 103.172 628.155 109.555 628.155 117.106C628.155 124.657 626.358 131.04 622.762 136.254C619.166 141.378 614.177 145.288 607.794 147.985C601.502 150.682 594.13 152.03 585.68 152.03ZM585.68 138.546C590.355 138.546 594.535 137.737 598.221 136.119C601.996 134.411 604.963 131.984 607.12 128.837C609.278 125.601 610.356 121.691 610.356 117.106C610.356 112.521 609.278 108.611 607.12 105.375C604.963 102.049 602.041 99.5317 598.355 97.8237C594.67 96.1157 590.445 95.2617 585.68 95.2617C581.006 95.2617 576.781 96.1157 573.005 97.8237C569.23 99.5317 566.218 102.004 563.971 105.24C561.813 108.476 560.735 112.432 560.735 117.106C560.735 121.691 561.813 125.601 563.971 128.837C566.128 131.984 569.095 134.411 572.87 136.119C576.646 137.737 580.916 138.546 585.68 138.546Z" fill="white"/>
<path d="M492.05 83.3956H509.579V150.412H492.05V83.3956ZM535.334 97.8237C530.3 97.8237 525.94 98.8125 522.254 100.79C518.569 102.678 515.602 105.015 513.355 107.802C511.107 110.589 509.534 113.286 508.635 115.892L508.501 108.476C508.59 107.397 508.95 105.824 509.579 103.757C510.208 101.599 511.152 99.3069 512.411 96.8798C513.669 94.3627 515.332 91.9805 517.4 89.7332C519.468 87.3959 521.985 85.5081 524.951 84.0698C527.918 82.6315 531.379 81.9124 535.334 81.9124V97.8237Z" fill="white"/>
<path d="M437.929 83.3956H455.458V150.412H437.929V83.3956ZM481.213 97.8237C476.179 97.8237 471.819 98.8125 468.133 100.79C464.448 102.678 461.481 105.015 459.234 107.802C456.986 110.589 455.413 113.286 454.514 115.892L454.379 108.476C454.469 107.397 454.829 105.824 455.458 103.757C456.087 101.599 457.031 99.3069 458.29 96.8798C459.548 94.3627 461.211 91.9805 463.279 89.7332C465.347 87.3959 467.864 85.5081 470.83 84.0698C473.797 82.6315 477.258 81.9124 481.213 81.9124V97.8237Z" fill="white"/>
<path d="M421.94 54V69.372H401.579V54H421.94ZM402.928 83.3955H420.457V150.412H402.928V83.3955Z" fill="white"/>
<path d="M323.825 141.512H315.33L365.491 63.1694H383.425V150.412H365.491V87.0364L369.806 88.25L329.758 150.412H309.667L269.619 88.5197L273.934 87.3061V150.412H256V63.1694H273.934L323.825 141.512Z" fill="white"/>
<defs>
<clipPath id="clip0_86_72">
<rect width="206" height="206" fill="white"/>
</clipPath>
</defs>
</svg>
