<svg width="618" height="618" viewBox="0 0 618 618" fill="none" xmlns="http://www.w3.org/2000/svg">
<path d="M465.147 617.924V541.26C476.095 541.26 486.721 541.383 497.256 541.26C503.866 541.334 510.474 540.93 517.026 540.052C529.594 538.034 537.942 529.426 539.961 516.812C540.769 511.53 541.157 506.192 541.123 500.849C541.184 373.189 541.184 245.534 541.123 117.885C541.123 86.0818 531.781 76.755 500.222 76.7091H465.407V0.366951C467.655 0.259922 470.101 0.0305746 472.548 0.0305746C507.959 0.0305746 543.375 0.0305746 578.797 0.0305746C583.635 -0.023183 588.469 0.340019 593.246 1.11615C606.227 3.36376 614.651 11.6661 616.853 24.7084C617.702 30.7855 618.049 36.9221 617.893 43.0562C617.893 220.643 617.893 398.239 617.893 575.846C617.893 609.01 608.918 617.985 575.678 618H465.132L465.147 617.924Z" fill="white"/>
<path d="M152.776 541.26V617.557C150.269 617.679 147.822 617.908 145.391 617.908H39.1267C35.8241 617.908 32.4909 617.908 29.2036 617.618C11.7732 616.012 1.42195 605.478 0.244637 587.971C0 583.644 0 579.301 0 574.974C0 397.368 0 219.766 0 42.1694C0 9.00571 8.97514 0 42.2 0H152.623V76.6632C141.829 76.6632 131.217 76.5256 120.606 76.6632C113.989 76.6406 107.378 77.08 100.821 77.9782C88.2682 79.9811 79.8894 88.6046 77.8864 101.203C77.0862 106.486 76.6977 111.823 76.7244 117.166C76.6632 244.826 76.6632 372.486 76.7244 500.146C76.7244 531.949 86.0665 541.291 117.609 541.321L152.776 541.26Z" fill="white"/>
<path d="M163.601 307.846C163.601 251.029 163.601 194.217 163.601 137.41C163.601 114.475 175.604 103.482 198.263 102.243C228.201 100.546 240.861 114.873 240.616 144.657C239.699 255.723 240.249 366.803 240.249 477.869C240.249 502.332 228.721 513.968 204.44 513.983C201.382 513.983 198.324 513.983 195.266 513.983C176.475 513.693 163.678 500.987 163.632 482.134C163.525 439.598 163.632 397.047 163.632 354.51L163.601 307.846Z" fill="white"/>
<path d="M377.659 307.326C377.659 250.529 377.659 193.722 377.659 136.905C377.659 114.567 389.891 103.436 412 102.151C443.145 100.347 454.888 115.668 454.674 144.26C453.802 255.585 454.322 366.91 454.307 478.236C454.307 502.149 442.626 513.876 418.804 513.892C415.746 513.892 412.688 513.892 409.63 513.892C390.396 513.739 377.659 501.002 377.659 481.63C377.608 423.529 377.608 365.427 377.659 307.326Z" fill="white"/>
<path d="M347.278 400.227C347.278 427.213 347.278 454.2 347.278 481.186C347.278 501.69 336.147 513.509 315.659 514.473C303.243 515.054 290.553 516.246 280.492 506.338C274.376 500.345 270.783 493.281 270.768 484.688C270.768 428.421 270.584 372.17 270.768 315.903C270.844 298.993 284.085 286.379 301.118 285.966C306.209 285.828 311.316 285.844 316.408 285.966C334.266 286.348 347.156 299.115 347.278 316.989C347.4 344.725 347.278 372.476 347.278 400.227Z" fill="white"/>
</svg>
