<svg xmlns="http://www.w3.org/2000/svg" viewBox="0 0 632.84 126.52"><defs><style>.b6921773-44df-433e-8558-f8c9d1dd3faf{fill:#fff;}</style></defs><g id="bb1333b8-c5ad-4966-b9bf-cf75de91a8c4" data-name="Layer 2"><g id="a2809f1b-51c6-49bc-9440-ce493202b79a" data-name="Layer 1"><path class="b6921773-44df-433e-8558-f8c9d1dd3faf" d="M66.4,125.48a5,5,0,0,1-2.3-.7,5.24,5.24,0,0,1-2.34-2.27,4.85,4.85,0,0,1-.56-1.29,25.54,25.54,0,0,1-.29-5.13,51.14,51.14,0,0,1,.29-5.52q.27-2.64,1.17-7.82Q64.5,90.33,67.8,75.26a43.21,43.21,0,0,0,.83-4.64v-.07a52.31,52.31,0,0,0-6-.14q-6.57,0-9.42.16c-1.83.11-3.61.3-5.35.56q-4.77.74-6.68,1.21c-1.26.32-2,.68-2.2,1.07a47.63,47.63,0,0,0-2.58,7.33c-.5,1.64-.86,3-1.08,4a25.6,25.6,0,0,0-.49,4.67,13.67,13.67,0,0,0,.35,3.19A15.43,15.43,0,0,1,35.55,95a5.48,5.48,0,0,0,.71,2,2.88,2.88,0,0,1,.4.73v0c-.28,0-1-1-2.09-3-.59-1.11-.94-1.67-1-1.67s-.05.07-.05.19l0,.35c0,.3,0,.53,0,.68s0,.31-.07.31-.42-.74-.75-2.23a17.47,17.47,0,0,1-.28-3.33c0-.51,0-1,0-1.61s.05-1.16.05-1.55c0-.61,0-.92-.12-.92l0,0a3.28,3.28,0,0,0-.32,1.58c0,.7,0,1.12,0,1.28a23,23,0,0,0,.68,6.54,13.42,13.42,0,0,1,.51,1.9v0a9.3,9.3,0,0,1-.82-1.76,21.77,21.77,0,0,1-1-7.12,28.5,28.5,0,0,1,.26-3.85q.16-1.22.33-2.4c.11-.79.18-1.38.23-1.78s.12-.83.21-1.28.19-.84.29-1.17a3.11,3.11,0,0,0,.16-1,2.64,2.64,0,0,0-.17-.93l-.07-.19a1.11,1.11,0,0,0-.21-.41.61.61,0,0,0-.47-.13,23.06,23.06,0,0,0-3.23.7c-.8.18-2.07.5-3.82,1q-3.09.84-7.2,2.11a1.24,1.24,0,0,1-.3,0c-.11,0-.17,0-.17-.09l.05-.16s-.05,0-.14,0A19.76,19.76,0,0,0,13,79.15q-1.8.63-6.87,2.69c-.92.38-1.61.64-2.06.8a11.83,11.83,0,0,0-1.87.8,6.28,6.28,0,0,1-1.67.68,1.56,1.56,0,0,1-.4.09c-.06,0-.09,0-.09,0q0-.42,7.31-3.61,7-3,11.18-4.45c1.1-.34,1.64-.58,1.64-.7s0,0,0,0h-.06A18.09,18.09,0,0,0,17,76.2c-1.9.6-4.13,1.38-6.68,2.32a22.42,22.42,0,0,1-4.12,1.31.09.09,0,0,1-.06,0,.07.07,0,0,1,0-.07q0-.09.24-.09c.23,0,.56-.21,1-.63s2.47-1.38,5.91-2.74,5.13-2.22,5.13-2.49l0-.07q0-.83,11-4.19c1.3-.39,2.42-.74,3.37-1L34.42,68c.19-.07.29-.15.29-.24a.09.09,0,0,0,0-.07l-.09,0a45,45,0,0,0-5.41,1,50.13,50.13,0,0,1-5.39,1.08h-.07q0-.28,4.9-1.8c1.37-.43,2.72-.81,4-1.15a18.66,18.66,0,0,0,2-.57,1.89,1.89,0,0,0,.9-.59,5.6,5.6,0,0,0,.57-1.09,4.86,4.86,0,0,0,.52-1.67l0-.18q0-.83,3.18-6.59A155.71,155.71,0,0,1,52.88,37q6-7.71,11.6-13.8c.87-1,1.48-1.68,1.82-2.11a45.32,45.32,0,0,1,5.42-4.88c1.22-1,2.3-1.84,3.26-2.53Q79,11,81.73,11A3.73,3.73,0,0,1,85,13a8,8,0,0,1,1,4.15Q85.76,24.94,80,52.83q-2.28,10.83-2.32,11.46c0,.25,1.14.9,3.35,1.94Q91.7,71.38,91.71,82.76a28.11,28.11,0,0,1-1.5,9,88.19,88.19,0,0,1-4.69,10.52,106.54,106.54,0,0,1-9.24,15.45q-4.52,6.07-7.61,7.22A7.05,7.05,0,0,1,66.4,125.48ZM13.66,79.59c-.06,0-.09,0-.09,0s.08-.12.23-.23a2.32,2.32,0,0,1,.53-.24,1.89,1.89,0,0,1,.51-.1c.14,0,.21,0,.21.07s-.13.15-.38.26A3.52,3.52,0,0,1,13.66,79.59Zm18.17-2s0,0,0,0a1.51,1.51,0,0,1,.1-.35.84.84,0,0,1,.2-.35c.07-.06.12-.1.15-.1s.12.06.12.17a.83.83,0,0,1-.28.47C32,77.51,31.88,77.58,31.83,77.58Zm3.44,17.48s.08,0,.1-.16a1.33,1.33,0,0,0-.25-.62c-.16-.28-.27-.41-.32-.41s0,0,0,0a2.83,2.83,0,0,0,.21.73Q35.14,95.06,35.27,95.06Zm8.53-30.7a1.18,1.18,0,0,0,.31,0c.61-.14,2.21-.4,4.8-.77A100.68,100.68,0,0,1,61.83,63c5.8,0,8.69-.05,8.69-.07s.9-4.41,2.7-13q5.34-25.71,5.34-29.32a3.9,3.9,0,0,0,0-.4l-.05,0q-.72,0-7.19,6.59-2.83,2.88-5.14,5.46A183.08,183.08,0,0,0,47,58c-.38.64-.79,1.33-1.25,2s-.85,1.34-1.16,1.84a5.73,5.73,0,0,0-1.08,2.18C43.55,64.27,43.63,64.36,43.8,64.36Zm18.05,56.46a11.29,11.29,0,0,0,0-1.22c0-.81,0-1.78,0-2.92s0-2.26.07-3.38.1-1.94.17-2.44a10.31,10.31,0,0,0,.09-1c0-.13,0-.19,0-.19s-.1.12-.19.35a11.29,11.29,0,0,0-.38,2.38c-.09,1.13-.14,2.11-.16,2.92s0,1.37,0,1.66C61.48,119.53,61.6,120.82,61.85,120.82Zm3.28,3.7c.08,0,.12,0,.12-.07s-.23-.23-.68-.47a3.9,3.9,0,0,1-.93-.7,3.7,3.7,0,0,1-.73-1c-.38-.66-.63-1-.75-1s0,0,0,.07a2.89,2.89,0,0,0,.33.82,5.17,5.17,0,0,0,1.27,1.52A2.9,2.9,0,0,0,65.13,124.52ZM62.58,107a7.77,7.77,0,0,0,.49-1.81,7.11,7.11,0,0,0,.12-1.15c0-.12,0-.19,0-.19s-.16.23-.28.68a9.25,9.25,0,0,0-.35,2.28c0,.12,0,.19,0,.19Zm.65-3.75c.1,0,.15-.11.17-.31a.86.86,0,0,0-.07-.34c0-.12-.09-.17-.12-.17s-.08.11-.09.35S63.16,103.2,63.23,103.2Zm4.39-20.91c.11,0,.16-.1.16-.31a.92.92,0,0,0-.07-.36c0-.12-.08-.17-.12-.17s-.07.11-.09.35S67.54,82.29,67.62,82.29ZM68,80.46c.09,0,.14-.16.14-.49s0-.49-.14-.49-.09.16-.09.49S67.91,80.46,68,80.46Zm.33-1.55c.09,0,.15-.11.16-.32a.83.83,0,0,0-.07-.34q-.08-.18-.12-.18s-.07.12-.09.35S68.22,78.91,68.3,78.91ZM68.63,115c.2,0,.5-.19.89-.56a9.13,9.13,0,0,0,1-1.15,99.05,99.05,0,0,0,7.13-11.78,95.83,95.83,0,0,0,5.71-12.43,16.78,16.78,0,0,0,.86-2.93,12.51,12.51,0,0,0,.13-1.83q0-4.95-1.71-7.65a11.25,11.25,0,0,0-5.86-4.25,2.57,2.57,0,0,0-.63-.17h0q-.28.45-2.67,12.1-2.23,10.75-3.59,18.35a96.43,96.43,0,0,0-1.62,11.15C68.2,114.65,68.34,115,68.63,115Zm.63-40.62c.09,0,.24-.43.44-1.31a10,10,0,0,0,.38-2c0-.06,0-.1,0-.11l0,0c-.12,0-.29.4-.5,1.21a8.18,8.18,0,0,0-.32,2C69.21,74.3,69.23,74.41,69.26,74.41Z"/><path class="b6921773-44df-433e-8558-f8c9d1dd3faf" d="M97.1,110.34a4.34,4.34,0,0,1-1.45-.25,3.66,3.66,0,0,1-2.35-1.77,7.16,7.16,0,0,1-.6-3.13,55.56,55.56,0,0,1,1.47-10q1.65-7.67,5.1-21t6.41-23.3q2.86-9.47,6.29-19.65T118.07,14q2.66-7.1,3.2-7.23h0q.12,0,.33-.27a3.3,3.3,0,0,0,.4-.76c.29-.65.5-1,.63-1s.08.06.09.17a3.34,3.34,0,0,1-.28,1c-.11.28-.23.62-.35,1s-.23.75-.31,1.09a4.21,4.21,0,0,0-.11.74c0,.16,0,.23.14.23a.54.54,0,0,0,.19,0,.89.89,0,0,1,.32-.1.14.14,0,0,1,.12.14,15.27,15.27,0,0,1-.84,2.68,14.19,14.19,0,0,0-.73,2.6l0,.09c.14,0,.62-1.16,1.43-3.47a16.22,16.22,0,0,1,1.39-3.28s0,0,0,.09a3.47,3.47,0,0,1-.16.82,14,14,0,0,1-.57,1.69A40.08,40.08,0,0,0,120.61,22a18.87,18.87,0,0,1-.47,3.59,21,21,0,0,0-.49,3.26,19.61,19.61,0,0,1-.77,4q-.61,2.2-3.59,11.44-3,9.39-3.8,12.49-.92,3.51-1.5,5.39-1,3.24-1.84,6.12t-2.33,9.07q-2.13,8.63-2.6,10.24a3.69,3.69,0,0,0-.24,1.12.31.31,0,0,0,0,.15c.14,0,1.54-2.38,4.22-7q3.51-6.14,6.66-11A69.57,69.57,0,0,1,118.73,64a11.23,11.23,0,0,1,2.65-2.13,5.38,5.38,0,0,1,2.53-.84,2.34,2.34,0,0,1,1.66.94,6.5,6.5,0,0,1,1.34,2.32,28.15,28.15,0,0,1,.24,4.85,110.76,110.76,0,0,1-.42,11.13q-.24,1.83-.47,9.54c-.11,3.2-.17,5.48-.17,6.82a10.82,10.82,0,0,0,0,1.19h0c.16,0,.39-.22.7-.67s.86-1.14,1.88-2.37a66.3,66.3,0,0,0,4.26-6q2.73-4.08,3.07-4.08l0,0s0,0,0,0c.18,0,.7-.77,1.55-2.3s1.55-2.7,2.08-3.52.84-1.21.94-1.21,0,0,0,0a41.79,41.79,0,0,1-2.91,6.19c-.76,1.48-1.47,2.77-2.11,3.87-1.15,2-1.73,3.11-1.73,3.18s0,0,0,0q.28,0,3.66-5.44a29.07,29.07,0,0,1,1.85-2.95c.05,0,.07.18.07.54q0,1.09-1.71,4.26a12,12,0,0,0-1.38,3.14c0,.08,0,.12.11.12s.31-.12.46-.35.24-.35.27-.35,0,0,0,0a7.15,7.15,0,0,1-.72,1.71,58.41,58.41,0,0,1-3.39,5.89,56.39,56.39,0,0,1-3.9,5.46,15.43,15.43,0,0,0-1.6,2h0a7.3,7.3,0,0,0,1-.87,55.88,55.88,0,0,0,4.36-5,42.52,42.52,0,0,1,3.51-4.29s0,0,0,0a5.64,5.64,0,0,1-.64,1.33,39.91,39.91,0,0,1-5.63,7.92c-2.2,2.41-4,3.85-5.55,4.34a7.42,7.42,0,0,1-1.52.16,3.71,3.71,0,0,1-3.26-1.54,7.12,7.12,0,0,1-1.16-2.32,35.61,35.61,0,0,1-.22-5.35q0-9,.45-16.31.31-5,.32-6.56a2.09,2.09,0,0,0,0-.61,15.63,15.63,0,0,0-2,3c-1.21,2-2.64,4.44-4.31,7.36s-3.25,5.79-4.77,8.58q-4.18,7.83-6,11a14.65,14.65,0,0,1-2.4,3.46A4.56,4.56,0,0,1,97.1,110.34Zm-.07-1a3.77,3.77,0,0,0,2.72-1.45c.39-.44.59-.73.59-.89s0,0,0,0-.35.24-.82.72A3.43,3.43,0,0,1,96.91,109a3.2,3.2,0,0,1-1.21-.25c-1-.49-1.5-1.9-1.57-4.25l0-2.13c-.11.47-.22.94-.32,1.41a6.38,6.38,0,0,0-.15,1.33,4.64,4.64,0,0,0,.49,2.16A3.28,3.28,0,0,0,95.73,109,4.85,4.85,0,0,0,97,109.31Zm-2.74-8.2c.09,0,.15-.1.16-.31a.92.92,0,0,0-.07-.36c0-.12-.08-.17-.11-.17s-.08.12-.1.37S94.21,101.11,94.29,101.11Zm6.82,4.24a2.17,2.17,0,0,0,.44-.47,2.51,2.51,0,0,0,.68-1.17c0-.06,0-.09,0-.09s-.49.47-1,1.43a1.26,1.26,0,0,0-.11.28S101.09,105.35,101.11,105.35Zm1.62-2.51c.09,0,.2-.21.32-.51a.77.77,0,0,0,0-.26c0-.06,0-.09-.07-.09a.37.37,0,0,0-.15.06.45.45,0,0,0-.2.21.57.57,0,0,0-.09.29c0,.2,0,.3.11.3Zm6.4-11.53c.06,0,.25-.25.56-.75a7.76,7.76,0,0,0,1-1.83,0,0,0,0,0,0,0c-.1,0-.33.3-.71.89a5.22,5.22,0,0,0-.86,1.69Zm2.29-4a12.48,12.48,0,0,0,1.83-2.79c1.22-2.11,1.91-3.29,2.09-3.54a2,2,0,0,0,.35-.7,0,0,0,0,0,0,0,30.8,30.8,0,0,0-2.2,3.34,27.6,27.6,0,0,0-2.09,3.6C111.35,87.28,111.38,87.33,111.42,87.33Zm9.71-67.15c-.15,0-.22-.05-.22-.16a.37.37,0,0,1,.09-.2,1.37,1.37,0,0,1,.17-.23.26.26,0,0,1,.17-.09c.09,0,.14.11.14.33a.38.38,0,0,1-.35.35Zm3.63,87.07a1.15,1.15,0,0,0,.49-.2,4.78,4.78,0,0,0,.7-.53l.78-.68c-1.47.88-2.21,1.33-2.21,1.36A.38.38,0,0,0,124.76,107.25ZM134.06,88a7,7,0,0,0,1.06-1.29A5.49,5.49,0,0,0,136,85s0-.07-.05-.07-.13.08-.25.23a5.23,5.23,0,0,0-.48.68c-.2.3-.39.62-.59,1s-.34.61-.45.82a1.59,1.59,0,0,0-.15.38Z"/><path class="b6921773-44df-433e-8558-f8c9d1dd3faf" d="M141.3,110.53a6.53,6.53,0,0,1-2.43-.37q-4.49-1.87-4.48-9.57a44.07,44.07,0,0,1,1.74-11.39,74.72,74.72,0,0,1,5-13.12,38.3,38.3,0,0,1,6.58-9.87c2.32-2.33,4.53-3.49,6.61-3.49,1.86,0,3.61.94,5.27,2.83l1.41,1.6c.43-1,.79-1.92,1.07-2.67q3.4-9.12,6.14-16.29,1.91-5,3-8.22t2.52-8.82c1-3.55,2.1-7.37,3.39-11.47s2.29-7,3-8.66a4.49,4.49,0,0,1,2.13-2.54A6,6,0,0,1,184,8a4.33,4.33,0,0,1,2.2.66A3.71,3.71,0,0,1,188,12.21q0,1.62-6.7,21.24-2,5.71-3.05,9.68T176,53.2q-1.17,6.12-1.69,7.81-.42,1.45-1.05,5.13c-.42,2.45-.74,4.63-1,6.52q-.21,2.06-.87,5.9c-.4,2.6-.69,4.83-.84,6.72a10.79,10.79,0,0,1-.56,3.31.71.71,0,0,0-.17.47.68.68,0,0,0,.08.31.45.45,0,0,1,.09.23.49.49,0,0,1-.26.42q-.4,0-.4,6v.68c0,3.65-.09,5.48-.26,5.48s-.44-2.69-.63-8.06c-.13-3.45-.25-5.18-.38-5.18s-.28,1.9-.32,5.69a10,10,0,0,1-.22,2.91c-.06,0-.17-.17-.32-.52q-.54-.81-.54-5.22a22.93,22.93,0,0,0-.17-3.85h0c-.14.29-.3.43-.49.43a12.47,12.47,0,0,1-.17-3.31q0-3.23.14-6.56.11-2.2.24-3.63c.06-.58.09-1,.09-1.27s0-.35-.07-.35-.2.42-.37,1.21-.34,1.8-.49,3a34.89,34.89,0,0,1-.87,4.88c-.17.59-.28.89-.33.89s-.05-.16-.05-.47,0-1,.07-1.83l0-1.4c0-.77,0-1.15-.12-1.15a17.45,17.45,0,0,0-1.43,3q-1.8,4.2-4.93,10.47t-5.08,9.57q-4,6.45-7.22,8.32a7.38,7.38,0,0,1-2.53.67C142.09,110.5,141.55,110.53,141.3,110.53Zm.83-7.71c.42,0,1.08-.52,2-1.57q2.38-2.5,7.08-12.07,3.35-6.78,5.37-11.65c1.36-3.25,2-5.23,2-6v-.12a8.89,8.89,0,0,0-1.17-2.37c-1-1.46-1.83-2.2-2.53-2.2a5.24,5.24,0,0,0-1.31.38,3.3,3.3,0,0,0-1.09.61,1,1,0,0,0-.3.77,1.37,1.37,0,0,1-.1.56c-.07.16-.15.24-.25.24S151,70.52,150,72.66A13.19,13.19,0,0,0,148.59,76s0,.08,0,.09a.29.29,0,0,1,0,.12,3.82,3.82,0,0,1-.47,1.29q-.67,1.38-1.92,4.56c-.83,2.11-1.61,4.23-2.34,6.34A48.94,48.94,0,0,0,142,95.87a34.26,34.26,0,0,0-.55,4.86C141.42,102.13,141.66,102.82,142.13,102.82ZM159.19,71s0,0,0-.12a3.54,3.54,0,0,0-.44-1.57,4.61,4.61,0,0,0-.52-.82c-.23-.31-.37-.47-.42-.47l0,0a9.8,9.8,0,0,0,.51,1.36C158.81,70.41,159.09,71,159.19,71Zm22.45-41.42c.05,0,.13-.08.24-.23a1.9,1.9,0,0,0,.24-.52,1.68,1.68,0,0,0,.08-.51c0-.14,0-.22-.07-.22s-.12.14-.23.4a3.52,3.52,0,0,0-.31,1C181.59,29.5,181.61,29.53,181.64,29.53Z"/><path class="b6921773-44df-433e-8558-f8c9d1dd3faf" d="M184,114.89c-.19,0-.28-.06-.28-.19a.37.37,0,0,1,0-.16.41.41,0,0,0,0-.16c0-.13-.09-.19-.28-.19h-.07c-.13,0-.19,0-.19-.07s.1-.14.31-.26a.62.62,0,0,0,.3-.56.79.79,0,0,0,0-.17.32.32,0,0,1,0-.14.94.94,0,0,1,.39-.74c.26-.21.39-.34.39-.38l-.05,0a1.21,1.21,0,0,0-.37.12l-.29.05c-.2,0-.3-.09-.3-.26s.12-.27.37-.45a1,1,0,0,0,.22-.77,7.45,7.45,0,0,0-.07-.84c-.15-1.22-.22-2-.22-2.3a1.74,1.74,0,0,0-.37-1.17,1,1,0,0,0-.63-.38.72.72,0,0,0-.36.13c-.12.09-.18.33-.18.74a6.79,6.79,0,0,0,.44,2.27l0,.19c0,.19-.13.28-.38.28a.69.69,0,0,0-.39.11.3.3,0,0,0-.15.24.3.3,0,0,0,.34.33c.23,0,.34.08.34.24a.59.59,0,0,1-.16.38,1,1,0,0,1-.48.3,1.2,1.2,0,0,0-.52.29.59.59,0,0,0-.2.41c0,.2-.06.32-.2.34a2.58,2.58,0,0,1-.38,0c-.13,0-.86-.08-2.18-.24.51.53,1,1.07,1.52,1.62h-.75a2.91,2.91,0,0,1-1.92-1.17,6.67,6.67,0,0,1-1.5-2.56,9.15,9.15,0,0,1-.28-2.34,10.45,10.45,0,0,1,.91-4.6,7.53,7.53,0,0,1,3.15-3.3,7.71,7.71,0,0,1,3.48-1,5.43,5.43,0,0,1,1.32.17A8.11,8.11,0,0,1,189,102a8.85,8.85,0,0,1,1.62,4.93,9,9,0,0,1-1.08,3.91,7.66,7.66,0,0,1-1.48,2.23,10.21,10.21,0,0,1-2,1.17A5.84,5.84,0,0,1,184,114.89Zm-5.09-14a4.19,4.19,0,0,0,1.13-.43c.7-.32,1-.55,1-.68s0,0,0,0a3.68,3.68,0,0,0-1.12.44c-.7.35-1.05.57-1.05.68S178.89,100.88,178.92,100.88Zm6.63-.22s.08,0,.08-.14-.25-.26-.75-.51a2.22,2.22,0,0,0-.57-.24,2.24,2.24,0,0,0,.48.43,3.75,3.75,0,0,0,.6.42A.5.5,0,0,0,185.55,100.66Z"/><path class="b6921773-44df-433e-8558-f8c9d1dd3faf" d="M230.93,117.07c-.22,0-.38-1.21-.49-3.63q-.09-1.48-.12-2.91a12.62,12.62,0,0,0-.12-2.55s-.11.22-.18.68-.15,1-.2,1.66-.09,1.27-.11,1.85a7.66,7.66,0,0,1-.07,1.48c0,.14-.11.21-.19.21a.46.46,0,0,1-.25-.14c-.35-.14-.52-1.1-.52-2.88a11.82,11.82,0,0,0-.12-2c-.08-.41-.21-.66-.4-.75s-.43-.66-.56-1.64-.22-2.6-.28-4.85a9.08,9.08,0,0,0-.07-1.29l-.05-.09c-.14,0-.38,1.07-.72,3.23-.11.87-.21,1.31-.31,1.31s-.15-.15-.26-.47a6.17,6.17,0,0,1-.23-1.94c0-.2,0-.4,0-.6a5.36,5.36,0,0,0,0-.55c0-.72-.09-1.09-.26-1.13s-1.82.12-4.9.26c-1,.07-2,.1-2.95.1a19,19,0,0,1-7.06-1,5.32,5.32,0,0,1-3.44-5.3,7.6,7.6,0,0,1,1.52-4.2A29.69,29.69,0,0,1,214.57,84q4.22-3.36,11.46-8.1L232,72.05l1.95-5.91a271.76,271.76,0,0,1,15.44-36.77q4.65-9.12,6-12.33,1.16-2.7,1.81-4.71a12.59,12.59,0,0,0,.65-2.51.24.24,0,0,0,0-.15.17.17,0,0,0-.13,0c-.63,0-2.45,1.07-5.49,3.19q-2.13,1.5-3.93,3l-3.71,3.05q-1.87,1.55-6.32,5.95-2,2-3.27,3.13a8.5,8.5,0,0,1-1.35,1.12,0,0,0,0,1,0,0l0-.11s0-.05,0-.05-.16.12-.34.35a3.59,3.59,0,0,1-.51.56.73.73,0,0,1-.36.21c-.05,0-.07,0-.07-.09a1.72,1.72,0,0,1,.44-.87,3.31,3.31,0,0,0,.68-1.61c0-.1-.06-.15-.14-.15s-.39.21-.75.61c-.19.25-.3.38-.33.38h0a1.91,1.91,0,0,1,.26-.56,8.28,8.28,0,0,1,1.45-2,13.37,13.37,0,0,0,1.48-1.9l-1.79,1.67a12.25,12.25,0,0,1-1.89,1.85,0,0,0,0,1,0,0,19.17,19.17,0,0,1,2-2.76,12.33,12.33,0,0,0,1.83-2.78c0-.22.23-.56.68-1a1.29,1.29,0,0,0,.52-1,.75.75,0,0,0,0-.2,1.64,1.64,0,0,1,0-.22,1,1,0,0,1,.35-.78c.34-.28.52-.52.52-.72a1.76,1.76,0,0,1,.29-.61,10,10,0,0,1,.74-1.08,5.33,5.33,0,0,0,1-1.83c0-.39.88-1.32,2.62-2.8s3.71-3,5.9-4.56a51.09,51.09,0,0,1,5.62-3.56A14.81,14.81,0,0,1,260,1.62a7.14,7.14,0,0,1,2.44.4,4.21,4.21,0,0,1,1.92,2.2,8.39,8.39,0,0,1,.78,3.61,25,25,0,0,1-1.79,8.26Q261.57,21,256.78,30.7q-3.91,8-5.15,10.64-4.56,9.87-8.11,19.39A26.59,26.59,0,0,0,242,65.41c.39,0,2.62-1.32,6.67-4s8.77-5.81,14.14-9.51q10.5-7.2,18.1-12.87,1.71-1.3,8-6.54a108.28,108.28,0,0,0,9.47-9.09A40.58,40.58,0,0,0,304.2,16c.37-.73.64-1.1.82-1.1s.09.06.09.19a1.85,1.85,0,0,1-.16.47,2.51,2.51,0,0,0-.24.61s0,.07.05.07.46-.54,1-1.6c.42-.81.69-1.22.82-1.22s0,0,0,0a5.26,5.26,0,0,1-.66,1.76,5.09,5.09,0,0,0-.65,1.92c0,.22,0,.33.14.33a2.11,2.11,0,0,0,.54-.56c.22-.25.35-.38.4-.38s0,0,0,.07a14.9,14.9,0,0,1-1.48,2.74q-.6,1-1.29,2A9.64,9.64,0,0,0,302.58,23s0,0,0,0c.2,0,1.12-1.2,2.74-3.59l2.25-3.28s0,0,0,0a15.51,15.51,0,0,1-1.39,2.67c-1.07,1.88-2,3.42-2.83,4.62a6.07,6.07,0,0,0-1,1.7,3.47,3.47,0,0,1-.87,1.35,2,2,0,0,0-.48.7,2.14,2.14,0,0,0-.2.84,1.36,1.36,0,0,1-.47,1.22,2.82,2.82,0,0,0-.87,1.11,20.42,20.42,0,0,1-1.91,2.55A6.09,6.09,0,0,0,296.25,35v0c-.05.42-1.36,1.75-3.95,4s-5.59,4.63-9,7.2q-8.7,6.48-16.47,11.78T246.28,71.37q-5.43,3.43-6.54,4.31a5.67,5.67,0,0,0-1.05,1,4.57,4.57,0,0,0-.54,1.06,40.64,40.64,0,0,0-2,7.24c-.2,1.19-.49,2.59-.86,4.2a14.7,14.7,0,0,0-.38,2.36.62.62,0,0,0,0,.16s.11,0,.3,0c.93,0,4.21-.33,9.84-1a196.68,196.68,0,0,1,21.47-1.14q14.25,0,20.72,1.61a44.15,44.15,0,0,1,4.43,1.57,37.66,37.66,0,0,1,3.84,1.81c1,.56,1.52,1,1.52,1.22a.34.34,0,0,0,0,.16.5.5,0,0,0,.25.38.55.55,0,0,0,.19.09,0,0,0,0,0,.05,0,.62.62,0,0,0-.11-.23.52.52,0,0,1-.1-.24.08.08,0,0,1,.09-.09.63.63,0,0,1,.45.21.6.6,0,0,1,.14.29,4,4,0,0,0,.7,1q.67.81,1.71,1.89,3.91,4.13,4.38,7.27a3.35,3.35,0,0,1,.07.58c0,.08,0,.12,0,.12a8.59,8.59,0,0,1-1.13-2.06,17.26,17.26,0,0,0-3.07-4.5,28.36,28.36,0,0,0-4.64-3.68,4.17,4.17,0,0,0-1.57-.75c-.05,0-.07,0-.07,0s.3.34.89.68a21.24,21.24,0,0,1,3,2.27,28.61,28.61,0,0,1,2.64,2.68,4.13,4.13,0,0,1,1.11,1.87c0,.08,0,.12-.14.12a1.46,1.46,0,0,1-.31-.31c-.25-.28-.43-.42-.56-.42a.09.09,0,0,0-.07,0l-.05,0c-.14,0-.49-.35-1-1a16.28,16.28,0,0,0-3.45-2.91,3.37,3.37,0,0,0-1.29-.68q-.09,0-.09.21a.67.67,0,0,0,0,.24.69.69,0,0,1,0,.16s0,.07-.14.07a6,6,0,0,1-1.62-.49,28.48,28.48,0,0,0-3.77-1.29,40.77,40.77,0,0,0-6-1.1q-1.2-.12-1.62-.12a1.76,1.76,0,0,0-.31,0c0,.15.92.4,2.75.78a28.65,28.65,0,0,1,5.69,1.76c.74.31,1.1.52,1.1.63s0,0-.07,0a22,22,0,0,1-2.83-.56,56.81,56.81,0,0,0-8.59-1.42q-4.39-.39-12-.39-9.21,0-14.34.4-9.57.85-16,1.5c-2.31.24-3.55.38-3.71.43a38.45,38.45,0,0,0-.84,4.94c-.19,1.23-.33,2.26-.42,3.07-.14,1.41-.31,2.11-.52,2.11h0c-.07,0-.13.27-.2.82a19.06,19.06,0,0,0-.11,2.3C231.3,115.59,231.16,117.07,230.93,117.07Zm-23-23.69a.37.37,0,0,0,.2-.09.7.7,0,0,0,.23-.25.8.8,0,0,0,.09-.36,2.59,2.59,0,0,1,.29-.76c.2-.39.44-.81.73-1.26s.48-.79.59-1a1.45,1.45,0,0,0,.15-.39s0,0-.05,0-.36.35-.8,1a13.73,13.73,0,0,0-1.59,2.93C207.75,93.33,207.8,93.38,207.91,93.38Zm6.1,6.09a1.89,1.89,0,0,0,.68,0,3.44,3.44,0,0,0-.52-.09q-4.71-.92-5.86-3.61c-.14-.33-.26-.49-.35-.49s-.09,0-.09.16a2.79,2.79,0,0,0,.44,1.13,6,6,0,0,0,2.39,2.12A7.15,7.15,0,0,0,214,99.47Zm4.85-6.38q2.12,0,7.9-.46c1-4.5,1.58-7.14,1.69-7.9a4.51,4.51,0,0,1,.39-1.36.48.48,0,0,0,.1-.28.06.06,0,0,0-.07-.07,5.72,5.72,0,0,0-1.32.71c-.76.48-1.66,1.07-2.7,1.79s-2.07,1.46-3.08,2.23c-2.11,1.58-3.56,2.72-4.33,3.42s-1.16,1.18-1.16,1.43S217.14,93.09,218.86,93.09Zm-1.48,6.73c.44,0,.66,0,.66-.07s-.18-.15-.54-.16a1.9,1.9,0,0,0-.54.07c-.11,0-.16.06-.16.09S217,99.8,217.38,99.82Zm2.89-18.59a3,3,0,0,0,1-.58c.67-.49,1-.78,1-.89a0,0,0,0,0,0,0,3.12,3.12,0,0,0-1,.59c-.67.48-1,.78-1,.89S220.25,81.23,220.27,81.23Zm2.32-1.59A31.86,31.86,0,0,0,227,77c.81-.53,1.5-1,2.06-1.36L230,75a.12.12,0,0,0,.08-.11l-.07-.14a24,24,0,0,0-3.54,2.13,28.28,28.28,0,0,0-3.89,2.72Zm13.14-59.39c-.12,0-.18-.05-.18-.14a.43.43,0,0,1,.07-.22.76.76,0,0,1,.17-.23.29.29,0,0,1,.16-.09c.1,0,.16.12.16.35a.31.31,0,0,1-.11.22A.37.37,0,0,1,235.73,20.25Zm3.17,34s.18-.15.4-.44a2.14,2.14,0,0,0,.51-1c0-.12,0-.19-.07-.19s-.29.33-.58,1a2.28,2.28,0,0,0-.26.61Zm1-1.94c.11,0,.42-.61.94-1.81a7.37,7.37,0,0,0,.54-1.55s0,0,0,0a5.11,5.11,0,0,0-.82,1.53,10.22,10.22,0,0,0-.68,1.75C239.81,52.3,239.83,52.34,239.86,52.34Zm1.73-4.18c.08,0,.22-.13.43-.39a2.1,2.1,0,0,0,.49-1.18c0-.12,0-.18-.1-.18s-.21.16-.39.49a3.18,3.18,0,0,0-.47,1.17C241.55,48.13,241.56,48.16,241.59,48.16Zm5-10.78q.15,0,.45-.42a2,2,0,0,0,.49-1c0-.07,0-.1,0-.1s-.24.14-.44.42a2,2,0,0,0-.49,1C246.59,37.35,246.6,37.38,246.63,37.38Zm1.34-2.5c.11,0,.39-.43.84-1.28a4.81,4.81,0,0,0,.68-1.7s0-.07,0-.07-.4.4-.82,1.19a5.77,5.77,0,0,0-.71,1.81A0,0,0,0,0,248,34.88Zm1.73-3.54c.05,0,.16-.09.32-.25a.71.71,0,0,0,.25-.46c0-.08,0-.11-.12-.11a.28.28,0,0,0-.17.09,1.23,1.23,0,0,0-.19.34.89.89,0,0,0-.11.34S249.69,31.34,249.7,31.34Zm51.8,68.15A12.85,12.85,0,0,1,299.77,98c-.91-.85-1.36-1.34-1.36-1.48s0,0,0,0c.2,0,.8.5,1.78,1.52a11.76,11.76,0,0,1,1.29,1.43ZM303.66,25c-.05,0-.07,0-.07-.14s.2-.29.61-.58a1.69,1.69,0,0,1,.39-.31l0,0a1.86,1.86,0,0,1-.31.4C304,24.78,303.77,25,303.66,25Z"/><path class="b6921773-44df-433e-8558-f8c9d1dd3faf" d="M325.92,110.27a4.89,4.89,0,0,1-2.65-.75,7.06,7.06,0,0,1-1.87-1.87,8.69,8.69,0,0,1-1.1-3.33,27,27,0,0,1-.35-4.41l0-2.64a5.1,5.1,0,0,0-.09-1.5c-.11,0-.38.36-.82,1.1a19.76,19.76,0,0,1-2.38,2.93,17.06,17.06,0,0,1-2.75,2.43,6.87,6.87,0,0,1-3.5,1.11q-3.3,0-4.85-3.59a11.27,11.27,0,0,1-.58-3.87,28.47,28.47,0,0,1,.72-5.88,61.36,61.36,0,0,1,4.46-13q3.85-8.33,8.64-12.28a8.05,8.05,0,0,1,5.21-2A8.69,8.69,0,0,1,328.29,64c1.31.74,2,1.26,2,1.57,0,.08-.05.12-.14.12a1.45,1.45,0,0,1-.66-.3l-.12-.07,0,0a4.8,4.8,0,0,0,.7.84c.66.72,1,1.17,1,1.34a.06.06,0,0,1-.07.07c-.16,0-.57-.34-1.24-1s-1.31-1.17-1.57-1.17-.43.07-.43.21.25.46.73.87l.77.68-1-.68a7.33,7.33,0,0,0-3.8-1.29,2.23,2.23,0,0,0-.88.16q-.39.16-.39.24c0,.08.37.12,1.1.14a5,5,0,0,1,3.8,1.59c.14.16.21.26.21.31l0,0a3.21,3.21,0,0,1-.73-.47,4.71,4.71,0,0,0-2.72-1,3.81,3.81,0,0,0-1.25.23,3.93,3.93,0,0,0-1.32.84,5.73,5.73,0,0,0-1.06,1.22,2,2,0,0,0-.37,1l0,.19a.79.79,0,0,1,.07.3c0,.16-.06.24-.16.24s-.53.75-1,2.25a12,12,0,0,0-.36,1.64,21.51,21.51,0,0,1-1.77,4.07,73.36,73.36,0,0,0-3.42,8.56,11.31,11.31,0,0,0-.68,2.62c0,.64.13,1,.38,1q.89,0,2.74-3.75,1.13-2.19,3.82-8.6c.75-1.76,1.45-3.31,2.1-4.63a14.1,14.1,0,0,1,1.32-2.37,2.61,2.61,0,0,1,2-.75h.4A2.55,2.55,0,0,1,329,71.81a9,9,0,0,1,.3,2.67,38.09,38.09,0,0,1-.28,4.2q-1.67,15.66-1.66,20.16a4.49,4.49,0,0,0,.18,1.75h.05c.25,0,.76-.46,1.52-1.38a39.25,39.25,0,0,0,2.58-3.49,27.49,27.49,0,0,0,2.11-3.66,24.53,24.53,0,0,1,1.81-3.18,33.58,33.58,0,0,0,2.36-4.5,10.58,10.58,0,0,1,1.41-2.65l0,.07a3,3,0,0,1-.42,1.1,5.73,5.73,0,0,0-.52,1.29s0,.07,0,.07.48-.59,1.06-1.76c.28-.58.53-1.16.75-1.76a17.61,17.61,0,0,1,1.47-3c.16-.22.26-.33.31-.33s.07,0,.07.11a28.9,28.9,0,0,1-1.2,4c-.78,2.31-1.29,3.74-1.54,4.28a1,1,0,0,0-.19.52s0,.07.07.07a13.21,13.21,0,0,0,1.57-2.95c.76-1.66,1.25-2.49,1.45-2.49s.19.18.19.54a7.77,7.77,0,0,1-.56,2.44,7.33,7.33,0,0,0-.52,1.83c0,.12.05.19.14.19l.14,0a.68.68,0,0,1,.17,0c.11,0,.16.08.16.24a15.22,15.22,0,0,1-.8,2.93,37.88,37.88,0,0,1-1.94,5.08,2.52,2.52,0,0,0-.31.85s0,.07.05.07l.07,0a3.25,3.25,0,0,0,.55-.73c.26-.41.53-.88.81-1.43s.58-1.1.9-1.65.59-1,.81-1.32l.68-1-.21,1A17.18,17.18,0,0,1,341.46,93q-1,2.16-2.3,4.51t-2.36,3.95c-2.91,4.24-5.41,6.88-7.5,8A8.08,8.08,0,0,1,325.92,110.27Z"/><path class="b6921773-44df-433e-8558-f8c9d1dd3faf" d="M339.49,112.29a4.54,4.54,0,0,1-2.39-.75,4.41,4.41,0,0,1-1.81-2.17,10.88,10.88,0,0,1-.51-3.76v-.54q0-5.29,2.16-15.87,2.22-10.89,7.66-31.9,4.27-16.33,9.52-32.36t8-21.21a6.8,6.8,0,0,1,1.76-2.18,4.1,4.1,0,0,1,2.6-.85,3.75,3.75,0,0,1,2.79,1.22,5,5,0,0,1,1.29,3.54,14.76,14.76,0,0,1-.38,3c-.19.9-.35,1.36-.49,1.36s-.09-.09-.14-.25-.1-.25-.16-.25-.3.43-.52,1.28-.4,1.28-.54,1.28-.07-.1-.07-.31a4.46,4.46,0,0,1,.23-1.21,6.9,6.9,0,0,0,.38-2.28q0-1-.09-1c-.07,0-.2.2-.4.59s-.28.49-.33.49S368,8.12,368,8a8.93,8.93,0,0,1,.1-1c0-.42.07-.81.07-1.17,0-1.3-.34-2.13-1-2.49a1.35,1.35,0,0,0-.59-.14,1.71,1.71,0,0,0-.89.28A3.83,3.83,0,0,0,364.29,5a3.82,3.82,0,0,0-.42,1.07s0,.07,0,.07.46-.36.94-1.07c.67-1,1.26-1.46,1.76-1.46a.83.83,0,0,1,.49.17,2.07,2.07,0,0,1,.59,1.73,12.34,12.34,0,0,1-.47,3c-.09.38-.16.57-.19.57a1,1,0,0,1,0-.31q0-.59.09-2l0-1c0-1.13-.19-1.69-.56-1.69-.21,0-.46.17-.75.49a7.91,7.91,0,0,0-1.3,2.69,11.09,11.09,0,0,0-.6,3.24v.33c0,.6-.05.89-.14.89s0,0-.07-.06a.14.14,0,0,0-.1-.06c-.06,0-.09.16-.09.47a3.2,3.2,0,0,0,.13,1.05c.08.24.17.36.26.37s.13,0,.13.06-.13.22-.38.42-.47.47-.47.66a.29.29,0,0,0,0,.09.45.45,0,0,1,0,.21,18.46,18.46,0,0,1-.31,2.63,15.77,15.77,0,0,1-.65,3,.49.49,0,0,0-.05.19.21.21,0,0,0,.16.21c.11,0,.17.14.17.31a10.08,10.08,0,0,1-.45,2l-1.9,6.1q-2,6.23-4,13.22t-2.71,9.72a30.15,30.15,0,0,1-1,3.38q-1,2.79-4.24,16.08c-.91,3.68-1.63,6.77-2.18,9.25l-1.69,7.57c-.37,1.64-.7,3.3-1,5a10.84,10.84,0,0,0-.17,1.34q0,.09,0,.09a5.54,5.54,0,0,0,.91-1.52q2.83-5.5,8.3-15,2.34-4.08,3.44-5.79a1.55,1.55,0,0,0,.28-.75.42.42,0,0,0-.05-.2.22.22,0,0,1-.06-.13q0-.09.15-.09c.1,0,.44-.35,1-1s1.22-1.57,1.95-2.61a54,54,0,0,1,4.66-5.9,11.94,11.94,0,0,1,3.56-2.77,7.45,7.45,0,0,1,3.06-.75,4.64,4.64,0,0,1,2.81.92q3.25,2.41,3.26,10.29A41.42,41.42,0,0,1,376.1,76a39.85,39.85,0,0,1-3.55,9.61,53.32,53.32,0,0,1-5.85,9.63,39.93,39.93,0,0,1-3.38,3.6c-1.34,1.27-2.53,2.33-3.59,3.18a5.37,5.37,0,0,1-2,1.26h-.07l-.16-.07s0,0,0,.05a.19.19,0,0,0,0,.1.3.3,0,0,1,0,.11c0,.27-.42.7-1.25,1.29a10.39,10.39,0,0,1-2.76,1.64c-.05,0-.07,0-.07-.05l0-.11a.72.72,0,0,0,.12-.26c0-.05,0-.07-.07-.07a15.75,15.75,0,0,0-2.83,1.32,17,17,0,0,1-3.38,1.49c-.47.09-1,.22-1.52.38a2.58,2.58,0,0,1-.54.14l-.05,0a20.21,20.21,0,0,1,3.59-1.94,49.49,49.49,0,0,0,5.4-3.23,22.85,22.85,0,0,0,3.86-3l0-.1a11.46,11.46,0,0,0-2.23,1.43,33.41,33.41,0,0,1-4.64,2.91l-1.94,1,.54-.85a6,6,0,0,1,2-1.7,21.38,21.38,0,0,0,2.87-2c.73-.61,1.1-1,1.1-1.18s-.06-.11-.19-.11a1.46,1.46,0,0,0-.39.07h0s0,0,0,0,.22-.45.68-1a8.53,8.53,0,0,1,.79-.8,52.34,52.34,0,0,0,4.48-5.35c2-2.6,3-4.08,3-4.42v0a15.38,15.38,0,0,0-2.18,2.51,29.64,29.64,0,0,1-3.84,4.08L356.2,97,361,90.7a47.76,47.76,0,0,0,4.29-7.16,39.3,39.3,0,0,0,2.93-7.25,35.31,35.31,0,0,0,.67-3.72c.18-1.36.28-2.34.29-2.94s0-1,0-1.1c0-.73-.07-1.1-.21-1.1s-.82.64-1.85,1.92q-7.05,9.36-18.26,31.1-4.26,8.35-5.39,9.71A5.46,5.46,0,0,1,339.49,112.29Zm-3.56-8.13c.09,0,.15-.11.16-.33a.86.86,0,0,0-.07-.34c0-.12-.08-.18-.11-.18s-.08.12-.1.35S335.85,104.16,335.93,104.16Zm.38-4.15c.09,0,.21-.47.37-1.41a18,18,0,0,0,.3-2.79c0-.15,0-.23,0-.23s-.22.47-.37,1.4a17.72,17.72,0,0,0-.31,2.79Q336.28,100,336.31,100Zm1-6.61a.22.22,0,0,0,.16-.1,1.24,1.24,0,0,0,.18-.21.38.38,0,0,0,.08-.18c0-.11-.08-.17-.21-.17s-.35.11-.35.33S337.2,93.4,337.29,93.4Zm10.12,7.78c.1,0,.39-.45.87-1.36a5.1,5.1,0,0,0,.54-1.31s0-.05,0-.05-.39.45-.87,1.36a5.1,5.1,0,0,0-.54,1.31S347.4,101.18,347.41,101.18ZM349.59,97a21.68,21.68,0,0,0,2-3.4A26.68,26.68,0,0,0,353.37,90l0,0a20.69,20.69,0,0,0-2.08,3.52,22.09,22.09,0,0,0-1.69,3.47A0,0,0,0,0,349.59,97Zm4.22,8.93a5.09,5.09,0,0,0,1.83-1,6.51,6.51,0,0,0,1.36-1.15h0a8.15,8.15,0,0,0-1.62.85,10.86,10.86,0,0,0-1.69,1.17A.13.13,0,0,0,353.81,105.89Z"/><path class="b6921773-44df-433e-8558-f8c9d1dd3faf" d="M380.65,113.2a5.62,5.62,0,0,1-1.57-.21c-2.39-.73-3.87-2-4.43-3.88a18.23,18.23,0,0,1-.84-5.28,36.26,36.26,0,0,1,.63-6.26,100.47,100.47,0,0,1,5.25-18.63q5-13.25,10.71-19a8.36,8.36,0,0,1,6-3h.38a6.08,6.08,0,0,1,5.32,3,8.38,8.38,0,0,1,1.31,4.66A18.12,18.12,0,0,1,400.34,74a32.94,32.94,0,0,1-6.57,7.62A20.06,20.06,0,0,1,391,83.53c-1.16.69-2.26,1.28-3.32,1.78a6.44,6.44,0,0,1-2.17.75c-.39.07-.87,1-1.45,2.73s-1.13,3.84-1.66,6.23A45.62,45.62,0,0,0,381,103.8a2.62,2.62,0,0,0,.21,1.29,1.14,1.14,0,0,0,.85.47,5,5,0,0,0,1.87-1.22,38.49,38.49,0,0,0,5.7-5.62c1.76-2.31,3.28-4.16,4.54-5.53a21.42,21.42,0,0,0,2-2.7c.65-.95,1.81-2.63,3.5-5l1.5-2.18a19.09,19.09,0,0,1,2.15-2.9,4.68,4.68,0,0,1-.49,1,5.46,5.46,0,0,0-.66,1.24l0,0a9.39,9.39,0,0,0,1.76-2.3,21.34,21.34,0,0,1,2.11-3l.21,0s.07,0,.07.09c0,.39-.86,2.13-2.56,5.2a14,14,0,0,1-.77,1.29,1.12,1.12,0,0,0-.21.47c0,.08,0,.12.07.12s.2-.17.47-.51.57-.78.93-1.34.71-1.07,1-1.53a6.08,6.08,0,0,1,.66-.82.57.57,0,0,1,.27-.14c.1,0,.14.09.14.26a7.15,7.15,0,0,1-.86,2.51,3.55,3.55,0,0,0-.52,1.43.29.29,0,0,0,.14.29.27.27,0,0,1,.14.27q0,.89-2.06,5.09c-.38.75-.66,1.29-.84,1.61a4.54,4.54,0,0,0-.54,1.11s0,0,0,0,.66-.65,1.55-2c1.22-1.75,1.94-2.62,2.18-2.62,0,0,.07,0,.07.14,0,.59-.82,2.23-2.46,4.9a81.9,81.9,0,0,1-7.05,9.36,56.86,56.86,0,0,1-7.27,7.28C385.91,112.08,383.16,113.2,380.65,113.2Zm-5.79-13.29a20.63,20.63,0,0,0,.54-2.15,12.88,12.88,0,0,0,.3-1.46s0-.07,0-.07-.09.08-.18.23a4.1,4.1,0,0,0-.27.84c-.09.41-.17.86-.23,1.35s-.12,1-.12,1.19Zm.89-4.64c.06,0,.15-.12.26-.37a3,3,0,0,0,.23-1.08c0-.16,0-.24-.07-.26s-.17.13-.28.38a2.84,2.84,0,0,0-.23,1.08C375.66,95.17,375.69,95.26,375.75,95.27ZM379.27,84c.11,0,.33-.5.68-1.52a5,5,0,0,0,.37-1.43s0-.07,0-.07-.33.39-.65,1.16a5.45,5.45,0,0,0-.48,1.51C379.17,83.84,379.2,84,379.27,84Zm6.44,1s.1,0,.2-.14a3.72,3.72,0,0,0,.36-.39c.14-.16.21-.27.21-.34s-.12-.14-.37-.14a.52.52,0,0,0-.38.16.5.5,0,0,0-.16.36C385.57,84.8,385.62,85,385.71,85Zm.28-1.55a3.46,3.46,0,0,0,1.24-.46,5.77,5.77,0,0,0,1.55-1v0s0,0,0,0a3.78,3.78,0,0,0-1.28.47,7,7,0,0,0-1.11.61c-.29.2-.44.34-.44.42S385.93,83.41,386,83.41Zm.42-1.12a2.26,2.26,0,0,0,.85-.35s0,0,0,0c.33-.15.49-.35.49-.58a.49.49,0,0,0,0-.18.37.37,0,0,1-.06-.15s0,0,0,0a.28.28,0,0,1,.12,0,.32.32,0,0,0,.18,0,1,1,0,0,0,.64-.24,7.88,7.88,0,0,0,1.66-2.15,2.09,2.09,0,0,0,.35-.87,6.84,6.84,0,0,1,.85-2.06,7.43,7.43,0,0,0,.84-2,4.08,4.08,0,0,1,.45-1c.29-.56.67-1.19,1.12-1.9a8.75,8.75,0,0,0,1.59-3.86q0-.61-.39-.78H395c-.4,0-1,.55-1.85,1.64a40.68,40.68,0,0,0-2.86,4.75,60.26,60.26,0,0,0-2.83,6.27l-.05.12a16.29,16.29,0,0,0-1.1,3.19C386.3,82.23,386.34,82.29,386.41,82.29Z"/><path class="b6921773-44df-433e-8558-f8c9d1dd3faf" d="M406.66,113.2a5.67,5.67,0,0,1-1.57-.21c-2.39-.73-3.86-2-4.43-3.88a18.23,18.23,0,0,1-.84-5.28,36.26,36.26,0,0,1,.63-6.26,102.05,102.05,0,0,1,5.25-18.63q5-13.25,10.71-19a8.38,8.38,0,0,1,6-3h.37a6.06,6.06,0,0,1,5.32,3,8.31,8.31,0,0,1,1.32,4.66,18.14,18.14,0,0,1-3.1,9.35,33.13,33.13,0,0,1-6.56,7.62A20.24,20.24,0,0,1,417,83.53c-1.15.69-2.26,1.28-3.31,1.78a6.51,6.51,0,0,1-2.17.75c-.39.07-.88,1-1.45,2.73S409,92.63,408.42,95a45.38,45.38,0,0,0-1.4,8.78,2.62,2.62,0,0,0,.21,1.29,1.14,1.14,0,0,0,.84.47,5,5,0,0,0,1.88-1.22,37.88,37.88,0,0,0,5.69-5.62c1.77-2.31,3.28-4.16,4.55-5.53a22.47,22.47,0,0,0,2-2.7q1-1.42,3.49-5l1.5-2.18a19.47,19.47,0,0,1,2.16-2.9,5.36,5.36,0,0,1-.49,1,5.46,5.46,0,0,0-.66,1.24l0,0c.16,0,.75-.77,1.76-2.3a22.42,22.42,0,0,1,2.11-3l.21,0c.05,0,.07,0,.07.09,0,.39-.85,2.13-2.55,5.2q-.62,1.08-.78,1.29a1.12,1.12,0,0,0-.21.47c0,.08,0,.12.07.12s.21-.17.47-.51a15.12,15.12,0,0,0,.94-1.34c.36-.57.7-1.07,1-1.53a5.85,5.85,0,0,1,.67-.82.57.57,0,0,1,.27-.14c.09,0,.14.09.14.26a7,7,0,0,1-.87,2.51,3.65,3.65,0,0,0-.51,1.43c0,.15,0,.25.14.29a.27.27,0,0,1,.14.27q0,.89-2.07,5.09c-.37.75-.65,1.29-.84,1.61a4.54,4.54,0,0,0-.54,1.11s0,0,0,0,.65-.65,1.54-2c1.22-1.75,1.95-2.62,2.18-2.62,0,0,.07,0,.07.14,0,.59-.82,2.23-2.46,4.9a81.76,81.76,0,0,1-7,9.36,56.21,56.21,0,0,1-7.28,7.28Q410.44,113.21,406.66,113.2Zm-5.78-13.29a19.53,19.53,0,0,0,.53-2.15c.19-.8.29-1.28.31-1.46s0-.07-.05-.07-.09.08-.17.23a3.13,3.13,0,0,0-.27.84c-.1.41-.17.86-.24,1.35s-.11,1-.11,1.19Zm.89-4.64c.06,0,.14-.12.25-.37a2.87,2.87,0,0,0,.24-1.08c0-.16,0-.24-.07-.26s-.17.13-.28.38a2.87,2.87,0,0,0-.24,1.08C401.67,95.17,401.7,95.26,401.77,95.27ZM405.28,84c.11,0,.34-.5.68-1.52a5.17,5.17,0,0,0,.38-1.43s0-.07,0-.07-.32.39-.64,1.16a5.45,5.45,0,0,0-.48,1.51C405.19,83.84,405.22,84,405.28,84Zm6.45,1s.09,0,.2-.14a3.72,3.72,0,0,0,.36-.39c.14-.16.21-.27.21-.34s-.12-.14-.37-.14a.51.51,0,0,0-.38.16.46.46,0,0,0-.16.36C411.59,84.8,411.63,85,411.73,85Zm.28-1.55a3.52,3.52,0,0,0,1.24-.46,6,6,0,0,0,1.55-1v0s0,0-.05,0a3.74,3.74,0,0,0-1.29.47,6.86,6.86,0,0,0-1.1.61q-.45.3-.45.42S412,83.41,412,83.41Zm.42-1.12a2.18,2.18,0,0,0,.84-.35,0,0,0,0,0,0,0c.33-.15.49-.35.49-.58a.38.38,0,0,0-.06-.18.37.37,0,0,1-.06-.15s0,0,0,0a.21.21,0,0,1,.11,0,.36.36,0,0,0,.19,0,1,1,0,0,0,.63-.24,7.89,7.89,0,0,0,1.67-2.15,2.25,2.25,0,0,0,.35-.87,7,7,0,0,1,.84-2.06,7.26,7.26,0,0,0,.85-2,3.85,3.85,0,0,1,.44-1c.3-.56.67-1.19,1.13-1.9a8.75,8.75,0,0,0,1.59-3.86c0-.41-.13-.67-.4-.78H421c-.41,0-1,.55-1.85,1.64a39.34,39.34,0,0,0-2.86,4.75,60.28,60.28,0,0,0-2.84,6.27l0,.12a17.1,17.1,0,0,0-1.1,3.19C412.31,82.23,412.35,82.29,412.43,82.29Z"/><path class="b6921773-44df-433e-8558-f8c9d1dd3faf" d="M436.5,101.51c-3.87-.06-6.25-.14-7.12-.24-.55-.09-.82-.28-.82-.56a1.47,1.47,0,0,1,0-.33q.12-.67.35-5.95.19-4.75.73-10.48.57-5.39.61-11.13,0-6.61.3-6.61h0a2.44,2.44,0,0,1,.4.49c.25.38.45.57.61.57s.18-.09.25-.25.15-.25.21-.25.13.13.19.33a12.4,12.4,0,0,0,.78,2.16h0c.05,0,.07-.11.07-.33a8.11,8.11,0,0,0-.28-1.78,2.64,2.64,0,0,1-.14-.8c0-.09,0-.14,0-.14s.19.17.33.5a6.7,6.7,0,0,1,.35,1.12c.44,1.55.8,2.32,1.08,2.32a.22.22,0,0,0,.12-.06,4.49,4.49,0,0,0,.41-.73c.23-.44.5-1,.81-1.6Q438.17,63,441.09,63a5.34,5.34,0,0,1,3.1,1.17,6.62,6.62,0,0,1,1.7,1.6A26.73,26.73,0,0,1,447.77,69a25.88,25.88,0,0,0,2.89,4.39c1,1.15,1.74,1.75,2.32,1.79a1,1,0,0,1,.72.57.6.6,0,0,0,.39.37,2,2,0,0,0,.36.05,4.22,4.22,0,0,0,.87-.12,14.77,14.77,0,0,1,2.41-.37c.21,0,.31,0,.31.09s-.34.37-1,.63a11.28,11.28,0,0,1-3.4.89c-.16,0-.23,0-.23,0a3.4,3.4,0,0,0,1.11.19,7.55,7.55,0,0,1,1.42.23c.2.08.3.17.3.28s-.22.34-.65.5a6.42,6.42,0,0,1-1.11.28c-.82.11-1.24.29-1.24.54a.19.19,0,0,0,0,.11.39.39,0,0,1,0,.14c0,.21-.33.31-1,.31a7.56,7.56,0,0,1-2.57-.53A11,11,0,0,1,447.09,78l-1.26-.94.82.93a9.2,9.2,0,0,0,1.12,1c.43.36,1.46,1.12,3.12,2.27l-1.14-.22a7.29,7.29,0,0,1-1.18-.35,7.91,7.91,0,0,1-1.08-.5,16,16,0,0,1-2.83-2.56,15,15,0,0,1-2.25-3c-.43-.81-.71-1.21-.85-1.21s-.45.71-.89,2.12-.9,3.18-1.4,5.31q-.45,2-1.15,7.17T436.5,101.51Zm.87-15.59a.12.12,0,0,0,.09-.06.26.26,0,0,0,.05-.17v-.17a.79.79,0,0,0-.06-.29c0-.1-.07-.15-.11-.15s-.07.12-.09.37S437.29,85.92,437.37,85.92Zm.26-1.64c.2,0,.5-1.29.91-3.87-.42,1.25-.68,2.08-.77,2.49a4.94,4.94,0,0,0-.19,1.17C437.58,84.21,437.59,84.28,437.63,84.28Z"/><path class="b6921773-44df-433e-8558-f8c9d1dd3faf" d="M525.35,126.52c-.06,0-.1,0-.12-.14s-.31-2.79-.89-8.09c0,2.76-.1,4.3-.16,4.59s-.16.45-.28.45-.37-.24-.54-.7a7.62,7.62,0,0,1-.35-1.41c-.2-1.22-.43-1.83-.68-1.83l-.33,0c-.06,0-.1,0-.1,0s-.06-.32-.16-.89-.21-1.26-.35-2.08-.26-1.61-.36-2.41a15.82,15.82,0,0,1-.15-1.78c0-.69-.06-1-.17-1s-.27.39-.35,1.17a16.41,16.41,0,0,0-.09,1.78,8.66,8.66,0,0,1-.17,2.51h0c-.14,0-.33-.6-.56-1.81a37,37,0,0,1-.24-5c0-2.74.12-6.33.35-10.79q.69-12.14,2.07-23.57c.4-3.38.61-5.33.61-5.86,0-.1,0-.14,0-.14q-.46,0-6.2,3.42t-6.64,4.19q-.12.45-.24,8.65a131,131,0,0,1-.72,15c-.42,3-1.16,5-2.21,5.82a5.22,5.22,0,0,1-3.56,1.55,5.36,5.36,0,0,1-2.15-.49c-2.05-.9-3.83-2.86-5.35-5.91a21.89,21.89,0,0,1-2-9.21,24.12,24.12,0,0,1,.35-4,24.41,24.41,0,0,1,6.14-12.38L502,73.62l.17-5.28-4.22-.23c-2-.08-3.8-.23-5.45-.45s-4.05-.62-7.21-1.21c-1.93-.35-3.29-.62-4.07-.82-.47-.11-.71-.22-.71-.33a.16.16,0,0,1,.05-.1c0-.06-.33-.23-1-.5s-1.53-.58-2.61-.93a39.8,39.8,0,0,1-5-1.89,11.78,11.78,0,0,1-3-2.14,7.93,7.93,0,0,1-1-1,4.06,4.06,0,0,1,.71.47,23.11,23.11,0,0,0,4.46,2.32,35.9,35.9,0,0,0,5.59,1.78,31.84,31.84,0,0,0,4.08.75c.09,0,.14,0,.14,0a11.44,11.44,0,0,0-2.88-.94,38.43,38.43,0,0,1-5.07-1.61l-1.45-.64,1.36.07c.45,0,1.2.14,2.25.31s2.09.36,3.12.56a19.32,19.32,0,0,1,2.18.52l.14,0c.11,0,.16,0,.16-.14a.51.51,0,0,0,0-.2.35.35,0,0,1-.05-.18c0-.17.17-.25.51-.25l.61,0,5.11.31,6.59.37c.58,0,1,0,1.38,0,.56,0,.85,0,.85-.12s-1.08-.38-3.24-.58c-1.83-.16-3.41-.35-4.76-.59s-2-.43-2-.58a6.34,6.34,0,0,1,1.26-.05q1.78,0,5.89.19c3.37.18,5.68.28,6.91.28a2.11,2.11,0,0,0,.47,0c.22-.11.34-.5.37-1.19.11-2.88.38-6.2.79-10s.88-7,1.39-9.61a56.91,56.91,0,0,1,2.39-8c.57-1.52,1-2.27,1.18-2.27,0,0,.07,0,.07.11a1.79,1.79,0,0,1-.1.5l0,.14s0,0,0,0,.26-.31.61-.93c.25-.44.48-.83.71-1.17a3.13,3.13,0,0,1,.5-.62.58.58,0,0,1,.24-.11s.05,0,.05,0a11,11,0,0,1-1,1.95,7.06,7.06,0,0,0-1,2.67c0,.44,0,.66.07.66s.23-.16.45-.48.38-.48.44-.48,0,0,0,0a2,2,0,0,1-.16.57,35.93,35.93,0,0,0-1.48,5.9c0,.11,0,.17.05.17s.23-.44.47-1.32a39,39,0,0,1,1.8-5.2c.31-.72.51-1.08.59-1.08v0a17.55,17.55,0,0,1-.92,3.14,26.25,26.25,0,0,0-.89,3.91,31.87,31.87,0,0,0-.49,5.13,5.48,5.48,0,0,0,.19,1.71,11,11,0,0,1,.4,3c.11,1.69.26,3.16.46,4.41a34.84,34.84,0,0,1,.33,5.29V61c2.07.1,3.49.14,4.29.14,1.88,0,3.56,0,5.05-.06l4.47-.1.65-3.35Q526,48.47,527.88,40q1.77-7.69,2.84-11.67,1-3.48,3.49-11c.64-1.92,1.08-3.16,1.31-3.71a9.47,9.47,0,0,0,.71-1.85A59.17,59.17,0,0,1,539,5.13Q541,.8,541.34.8a0,0,0,0,1,0,0,.08.08,0,0,0,.07,0c.18,0,.37-.14.58-.42s.35-.42.41-.42,0,0,0,.05a1.59,1.59,0,0,1-.12.4,7.22,7.22,0,0,0-.46,1.92q0,.33.18.33a.57.57,0,0,0,.54-.43l0-.07s0,0,0,0a4.24,4.24,0,0,1-.09.6,9.33,9.33,0,0,1-.28,1q-.19.54-.39,1a4.7,4.7,0,0,0-.29.72,2.14,2.14,0,0,0-.1.46c0,.11,0,.16.05.16s.49-.64,1.06-1.92,1-2.13,1.14-2.13,0,0,0,.05a5.15,5.15,0,0,1-.33,1.07,14.18,14.18,0,0,0-.9,3.32,28,28,0,0,0-.23,3.79l0,2.15c0,.85,0,1.56-.07,2.16a16.75,16.75,0,0,1-.62,3.06q-.51,1.72-1.68,5.14c-1.2,3.53-2,6-2.26,7.42a25.81,25.81,0,0,1-.88,3.25c-.33,1-.85,3-1.57,6.07q-2.71,11.63-3.45,16.64l-.21,1.71,4.15-1.13A50.6,50.6,0,0,1,543,55.17c1.24-.11,2.07-.16,2.49-.16a5.71,5.71,0,0,1,3,.65A5,5,0,0,1,550,57.2a3.44,3.44,0,0,1,.62,1.79,6.9,6.9,0,0,1-1,2.44c-.64,1.2-1.06,1.82-1.27,1.85a7.3,7.3,0,0,0-1.64.73,32.45,32.45,0,0,1-6.37,2.17,62.71,62.71,0,0,1-8.2,1.48,13.08,13.08,0,0,0-1.43.2,1,1,0,0,0-.61.34,25.83,25.83,0,0,0-.8,4.85c-.59,4.72-1,8.33-1.15,10.81l-.23,3.19q-.54,6.47-.87,13t-.61,14q-.18,5.58-.59,5.83c-.14.08-.21.14-.21.19s.1.07.31.07H526c.15,0,.23,0,.23.07s-.08.12-.23.21-.38.82-.38,2.13l0,1.65a7.51,7.51,0,0,1-.17,2.25A.21.21,0,0,1,525.35,126.52ZM477.68,64.76a2.05,2.05,0,0,1-.5-.08,1.85,1.85,0,0,1-.53-.25c-.16-.11-.24-.19-.24-.23s0,0,.1,0a3.54,3.54,0,0,1,1,.3c.25.11.37.19.37.24S477.82,64.76,477.68,64.76Zm1.15.35c-.24,0-.35,0-.35-.09s.06-.07.17-.12a.94.94,0,0,1,.37-.07c.2,0,.3.07.3.16S479.16,65.11,478.83,65.11Zm7.9-4.73c-.33,0-.5,0-.5-.1s.06-.07.16-.1a.79.79,0,0,1,.29-.06.51.51,0,0,1,.35.09l.05,0C487.08,60.34,487,60.38,486.73,60.38ZM501.4,98l.26-.84a49.47,49.47,0,0,0,.28-7.29c0-2.71-.09-4.06-.26-4.06a8.06,8.06,0,0,0-.89,2.6,17.83,17.83,0,0,0-.42,4A13.54,13.54,0,0,0,501,97Zm.05-14.34c.11,0,.23-.12.37-.36a.39.39,0,0,0,.05-.14q0-.18-.21-.18a.33.33,0,0,0-.25.1.32.32,0,0,0-.1.22C501.31,83.58,501.35,83.7,501.45,83.7Zm8.08-7.79c.11,0,.3-.16.56-.49s.24-.3.24-.35a0,0,0,0,0-.05,0,1,1,0,0,0-.33.1,1.12,1.12,0,0,0-.38.24.44.44,0,0,0-.16.27C509.41,75.82,509.45,75.91,509.53,75.91Zm11.06-6.49a2.17,2.17,0,0,0,.64-.26l.63-.32a1.38,1.38,0,0,0,.36-.23c.06,0,.09-.09.09-.13s0,0-.08,0a.9.9,0,0,0-.26.07,4.09,4.09,0,0,0-.47.2A2.78,2.78,0,0,0,521,69C520.73,69.24,520.59,69.38,520.59,69.42Zm2.16,4.06c.11,0,.23-.39.35-1.18a6.77,6.77,0,0,0,.1-1.07,2.89,2.89,0,0,0-.07-1,7.39,7.39,0,0,0-.33,2c0,.49-.07.83-.07,1S522.73,73.48,522.75,73.48Zm2.58-15.43c.12,0,.31-.53.56-1.61a7.23,7.23,0,0,0,.14-1.15c0-.19,0-.28-.09-.28s-.17.15-.28.44a6.11,6.11,0,0,0-.28,1.07,5.85,5.85,0,0,0-.12,1.11C525.26,57.91,525.28,58.05,525.33,58.05Z"/><path class="b6921773-44df-433e-8558-f8c9d1dd3faf" d="M558.87,110.27a4.89,4.89,0,0,1-2.65-.75,7.1,7.1,0,0,1-1.88-1.87,8.87,8.87,0,0,1-1.1-3.33,28.11,28.11,0,0,1-.35-4.41l.05-2.64a4.5,4.5,0,0,0-.1-1.5c-.11,0-.38.36-.82,1.1a19,19,0,0,1-2.37,2.93,17.06,17.06,0,0,1-2.76,2.43,6.84,6.84,0,0,1-3.49,1.11q-3.3,0-4.85-3.59a11.25,11.25,0,0,1-.59-3.87,27.88,27.88,0,0,1,.73-5.88,61.31,61.31,0,0,1,4.45-13q3.87-8.33,8.65-12.28a8,8,0,0,1,5.2-2A8.66,8.66,0,0,1,561.23,64c1.32.74,2,1.26,2,1.57,0,.08,0,.12-.14.12a1.39,1.39,0,0,1-.65-.3l-.12-.07,0,0a4.8,4.8,0,0,0,.7.84c.66.72,1,1.17,1,1.34s0,.07-.07.07-.57-.34-1.24-1-1.3-1.17-1.57-1.17-.42.07-.42.21.24.46.73.87l.77.68-1-.68a7.27,7.27,0,0,0-3.8-1.29,2.18,2.18,0,0,0-.87.16q-.39.16-.39.24c0,.08.37.12,1.1.14a5,5,0,0,1,3.8,1.59c.14.16.21.26.21.31l0,0a3.28,3.28,0,0,1-.72-.47,4.73,4.73,0,0,0-2.72-1,3.77,3.77,0,0,0-1.25.23,4,4,0,0,0-1.33.84,6,6,0,0,0-1,1.22,2,2,0,0,0-.38,1l0,.19a.84.84,0,0,1,.08.3c0,.16-.06.24-.17.24s-.52.75-1,2.25a12,12,0,0,0-.36,1.64,21.51,21.51,0,0,1-1.77,4.07,73.36,73.36,0,0,0-3.42,8.56,10.78,10.78,0,0,0-.68,2.62c0,.64.12,1,.37,1,.59,0,1.51-1.25,2.74-3.75q1.13-2.19,3.82-8.6c.75-1.76,1.45-3.31,2.1-4.63a13.84,13.84,0,0,1,1.33-2.37,2.6,2.6,0,0,1,2-.75h.4A2.55,2.55,0,0,1,562,71.81a8.91,8.91,0,0,1,.31,2.67,38.43,38.43,0,0,1-.29,4.2q-1.65,15.66-1.66,20.16a4.21,4.21,0,0,0,.19,1.75h0c.25,0,.75-.46,1.52-1.38a41.32,41.32,0,0,0,2.58-3.49,28.64,28.64,0,0,0,2.11-3.66,24.37,24.37,0,0,1,1.8-3.18,33.49,33.49,0,0,0,2.37-4.5,10.8,10.8,0,0,1,1.4-2.65l0,.07a3,3,0,0,1-.42,1.1,5.23,5.23,0,0,0-.52,1.29s0,.07.05.07.47-.59,1-1.76c.28-.58.53-1.16.75-1.76a16.73,16.73,0,0,1,1.48-3c.15-.22.26-.33.3-.33s.07,0,.07.11a29.66,29.66,0,0,1-1.19,4c-.78,2.31-1.3,3.74-1.55,4.28a1.15,1.15,0,0,0-.19.52.06.06,0,0,0,.07.07,12.72,12.72,0,0,0,1.57-2.95c.77-1.66,1.25-2.49,1.46-2.49s.18.18.18.54a7.5,7.5,0,0,1-.56,2.44,7.61,7.61,0,0,0-.51,1.83c0,.12,0,.19.14.19l.14,0a.62.62,0,0,1,.16,0c.11,0,.17.08.17.24a16.09,16.09,0,0,1-.8,2.93,39,39,0,0,1-2,5.08,2.43,2.43,0,0,0-.3.85s0,.07,0,.07l.07,0a3.25,3.25,0,0,0,.55-.73c.26-.41.52-.88.81-1.43s.58-1.1.9-1.65.59-1,.81-1.32.44-.64.68-1l-.21,1A18,18,0,0,1,574.41,93c-.68,1.44-1.44,2.94-2.3,4.51s-1.65,2.89-2.37,3.95c-2.9,4.24-5.4,6.88-7.5,8A8,8,0,0,1,558.87,110.27Z"/><path class="b6921773-44df-433e-8558-f8c9d1dd3faf" d="M574.81,110.53a6.55,6.55,0,0,1-2.44-.37q-4.49-1.87-4.48-9.57a44.07,44.07,0,0,1,1.74-11.39,74.72,74.72,0,0,1,5-13.12,38.3,38.3,0,0,1,6.58-9.87c2.32-2.33,4.53-3.49,6.61-3.49,1.86,0,3.61.94,5.27,2.83l1.41,1.6c.43-1,.79-1.92,1.07-2.67q3.4-9.12,6.14-16.29,1.9-5,3-8.22t2.52-8.82c1-3.55,2.1-7.37,3.39-11.47s2.29-7,3-8.66a4.49,4.49,0,0,1,2.13-2.54A6,6,0,0,1,617.51,8a4.33,4.33,0,0,1,2.2.66,3.71,3.71,0,0,1,1.76,3.51q0,1.62-6.7,21.24-2,5.71-3,9.68T609.49,53.2q-1.17,6.12-1.68,7.81a50.79,50.79,0,0,0-1.06,5.13c-.42,2.45-.74,4.63-1,6.52q-.21,2.06-.87,5.9c-.4,2.6-.69,4.83-.84,6.72a10.79,10.79,0,0,1-.56,3.31.71.71,0,0,0-.17.47.68.68,0,0,0,.08.31.45.45,0,0,1,.09.23.49.49,0,0,1-.26.42q-.4,0-.4,6v.68c0,3.65-.09,5.48-.26,5.48s-.44-2.69-.63-8.06c-.13-3.45-.25-5.18-.38-5.18s-.28,1.9-.32,5.69a10.78,10.78,0,0,1-.21,2.91c-.07,0-.18-.17-.33-.52q-.54-.81-.54-5.22a22.93,22.93,0,0,0-.17-3.85h0c-.14.29-.3.43-.49.43a12.47,12.47,0,0,1-.17-3.31q0-3.23.14-6.56.1-2.2.24-3.63c.06-.58.09-1,.09-1.27s0-.35-.07-.35-.2.42-.37,1.21-.34,1.8-.49,3a33.44,33.44,0,0,1-.87,4.88c-.17.59-.28.89-.33.89s0-.16,0-.47,0-1,.07-1.83l0-1.4c0-.77,0-1.15-.12-1.15a17.45,17.45,0,0,0-1.43,3q-1.8,4.2-4.93,10.47t-5.08,9.57q-4,6.45-7.22,8.32a7.38,7.38,0,0,1-2.53.67C575.59,110.5,575.06,110.53,574.81,110.53Zm.82-7.71c.42,0,1.08-.52,2-1.57q2.39-2.5,7.08-12.07,3.34-6.78,5.37-11.65c1.36-3.25,2-5.23,2-6v-.12a8.89,8.89,0,0,0-1.17-2.37c-1-1.46-1.83-2.2-2.53-2.2a5.24,5.24,0,0,0-1.31.38,3.41,3.41,0,0,0-1.09.61,1,1,0,0,0-.3.77,1.37,1.37,0,0,1-.1.56c-.07.16-.15.24-.25.24s-.83,1.07-1.87,3.21A13.62,13.62,0,0,0,582.09,76s0,.08,0,.09a.29.29,0,0,1,0,.12,3.82,3.82,0,0,1-.47,1.29q-.67,1.38-1.92,4.56c-.83,2.11-1.61,4.23-2.34,6.34a48.94,48.94,0,0,0-1.94,7.46,34.26,34.26,0,0,0-.55,4.86C574.92,102.13,575.16,102.82,575.63,102.82ZM592.69,71s0,0,0-.12a3.54,3.54,0,0,0-.44-1.57,4.61,4.61,0,0,0-.52-.82c-.23-.31-.37-.47-.42-.47l0,0a9.8,9.8,0,0,0,.51,1.36C592.31,70.41,592.59,71,592.69,71Zm22.45-41.42c.05,0,.13-.08.24-.23a1.9,1.9,0,0,0,.24-.52,1.68,1.68,0,0,0,.08-.51c0-.14,0-.22-.07-.22s-.12.14-.23.4a3.52,3.52,0,0,0-.31,1C615.09,29.5,615.11,29.53,615.14,29.53Z"/><path class="b6921773-44df-433e-8558-f8c9d1dd3faf" d="M612.49,106.62a4.75,4.75,0,0,1-3.7-1.83,6.77,6.77,0,0,1-1.5-2.51,12.78,12.78,0,0,1-.26-3.19,44.44,44.44,0,0,1,.26-5.36,79.92,79.92,0,0,1,3.07-13.06c.91-3,1.77-5.49,2.58-7.58S614.31,70,614.6,70l.12,0c.17,0,.35-.14.54-.44s.19-.31.23-.31.1.08.1.24l-.07.82c0,.39.09.59.28.59l.21,0c.17,0,.26.11.26.33a4.19,4.19,0,0,1-.33,1.2,2.67,2.67,0,0,0-.21.67s0,0,0,0,.16-.14.35-.42a1.75,1.75,0,0,0,.52-1.07A.7.7,0,0,1,617,71a.29.29,0,0,1,.14-.07s.07,0,.07.14a2.05,2.05,0,0,1-.09.49,5.63,5.63,0,0,0-.33,1.78,4.81,4.81,0,0,0,.52,2,7.31,7.31,0,0,1,.86,2.53v.75a12.2,12.2,0,0,1-.84,3.77,23.59,23.59,0,0,0-1.12,4,2,2,0,0,1-.31,1.17,30.58,30.58,0,0,0-1.29,5.69,18.89,18.89,0,0,0-.35,2.56c0,.62.15.94.45.94q1.26,0,6.16-7.43L622,87.49a16.57,16.57,0,0,1,1.71-2.34,11.25,11.25,0,0,0,1.56-2.2,22.24,22.24,0,0,1,2-2.89A14,14,0,0,1,629,78v0a2,2,0,0,1-.21.54.59.59,0,0,0,0,.19s0,0,0,0,.49-.36,1.15-1.08c.79-.88,1.27-1.31,1.43-1.31a.06.06,0,0,1,.07.07,7.24,7.24,0,0,1-.95,1.94,7.41,7.41,0,0,0-1,1.9s0,.05,0,.05.46-.33,1.05-1,.89-.86,1.08-.86.14.07.14.23a4.82,4.82,0,0,1-.38,1.36,2.07,2.07,0,0,0-.18.73.47.47,0,0,0,.24.45.52.52,0,0,1,.25.51,8.72,8.72,0,0,1-.68,2.32,2.3,2.3,0,0,1-.35.65,1.05,1.05,0,0,0-.26.68s0,0,0,0,.53-.34,1.12-1,.87-.92,1.06-.92.14.1.14.24a6.49,6.49,0,0,1-.82,2.1,50.6,50.6,0,0,1-3.16,4.91q-2.33,3.33-4.85,6.63c-1.68,2.2-3,3.8-3.92,4.78Q615.8,106.62,612.49,106.62ZM609,103.1c.06,0,.09,0,.09-.14a2.45,2.45,0,0,0-.37-1c-.22-.4-.38-.61-.47-.61s0,0,0,.1a2.05,2.05,0,0,0,.17.74,2.88,2.88,0,0,0,.35.66C608.84,103,608.94,103.1,609,103.1Zm1.48,1.78s.07,0,.07-.11-.25-.33-.75-.75l-.78-.66A7.2,7.2,0,0,0,610.48,104.88Zm3.86.59a1.28,1.28,0,0,0,.36-.11,1.07,1.07,0,0,0,.35-.2.26.26,0,0,0,.09-.14c0-.07,0-.11-.16-.11a.75.75,0,0,0-.47.28c-.14.12-.21.21-.21.26S614.31,105.47,614.34,105.47Zm6.89-40.92a.79.79,0,0,1-.79-.38.73.73,0,0,0-.71-.47,1.67,1.67,0,0,1-.67-.23,5.18,5.18,0,0,1-.94-.61,3.7,3.7,0,0,0-1.67-.84.72.72,0,0,1-.7-.43v-.07a11.58,11.58,0,0,1,1-2.76c.73-1.64,1.2-2.46,1.4-2.46a4,4,0,0,1,.85.36c.48.24,1,.54,1.66.88s1.21.67,1.75,1,.92.56,1.16.73l.7.54L622.41,64A1.28,1.28,0,0,1,621.23,64.55Zm-5.41,40.31c.27,0,.95-.51,2-1.52a5.87,5.87,0,0,0,.82-.87,1.3,1.3,0,0,0-.37.26c-.74.61-1.42,1.12-2,1.54-.35.24-.52.42-.52.54S615.77,104.86,615.82,104.86Z"/></g></g></svg>